<svg xmlns="http://www.w3.org/2000/svg" width="543.515" height="375.997" viewBox="0 0 543.515 375.997">
  <g id="Group_223" data-name="Group 223" transform="translate(-325.531 -139.959)">
    <path id="Path_8204" data-name="Path 8204" d="M447.164,212.471a15.965,15.965,0,1,1,15.963-15.965A15.981,15.981,0,0,1,447.164,212.471Zm0-30.3A14.336,14.336,0,1,0,461.5,196.506,14.352,14.352,0,0,0,447.164,182.171Z" transform="translate(141.114 54.196)" fill="#1a1718"/>
    <path id="Rectangle_2443" data-name="Rectangle 2443" d="M14.141,0H51.909A14.141,14.141,0,0,1,66.05,14.141V35.812a0,0,0,0,1,0,0H0a0,0,0,0,1,0,0V14.141A14.141,14.141,0,0,1,14.141,0Z" transform="translate(554.63 217.307)" fill="#e61026"/>
    <rect id="Rectangle_2444" data-name="Rectangle 2444" width="1.629" height="77.349" transform="translate(586.841 139.959)" fill="#1a1718"/>
    <rect id="Rectangle_2445" data-name="Rectangle 2445" width="496.63" height="1.629" transform="translate(332.314 500.755)" fill="#1a1718"/>
    <path id="Path_8205" data-name="Path 8205" d="M664.928,351.685H447.273c-4.722,0-7.761-3.9-6.782-8.714L464.53,224.5c1-4.951,5.708-8.968,10.5-8.968H696.043c4.795,0,7.761,4.017,6.626,8.968L675.479,342.971C674.374,347.787,669.65,351.685,664.928,351.685Z" transform="translate(153.278 100.919)" fill="#aabac9"/>
    <g id="Group_214" data-name="Group 214" transform="translate(522.442 316.342)">
      <g id="Group_209" data-name="Group 209" transform="translate(65.216)">
        <g id="Group_207" data-name="Group 207" transform="translate(100.552 119.204)">
          <path id="Path_8206" data-name="Path 8206" d="M548.1,324.627l-35.355,4.233L483.9,268.848l39.7-2.324Z" transform="translate(-476.71 -266.524)" fill="#8d99a7"/>
          <path id="Path_8207" data-name="Path 8207" d="M546.277,325.116l-35.8,4.286-29.657-60.355,40.246-2.355Z" transform="translate(-480.824 -266.302)" fill="#aabac9"/>
        </g>
        <g id="Group_208" data-name="Group 208" transform="translate(85.169 176.717)">
          <path id="Path_8208" data-name="Path 8208" d="M564.975,299.726H477.2l1.811-8.576h87.857Z" transform="translate(-470.275 -291.15)" fill="#aabac9"/>
          <path id="Path_8209" data-name="Path 8209" d="M562.008,299.726H474.237l1.8-8.576H563.9Z" transform="translate(-474.237 -291.15)" fill="#c4d3e3"/>
        </g>
        <path id="Path_8210" data-name="Path 8210" d="M662.395,351.642H444.74c-4.722,0-7.763-3.9-6.789-8.716L461.9,224.451c1-4.951,5.7-8.968,10.5-8.968H693.4c4.795,0,7.763,4.017,6.633,8.968l-27.1,118.475C671.837,347.742,667.117,351.642,662.395,351.642Z" transform="translate(-437.769 -215.483)" fill="#c4d3e3"/>
      </g>
      <g id="Group_213" data-name="Group 213" transform="translate(0 7.803)">
        <g id="Group_211" data-name="Group 211">
          <path id="Path_8211" data-name="Path 8211" d="M595.266,218.824H427.379a9.066,9.066,0,0,0-8.4,7.221l-1.2,6.17H599.388l1.324-6.17C601.569,222.059,599.131,218.824,595.266,218.824Z" transform="translate(-399.253 -218.824)" fill="#2698cf"/>
          <path id="Path_8212" data-name="Path 8212" d="M477.515,224.558H428.368l-18.387,94.551c-.757,3.9,1.724,7.051,5.537,7.051H581.249a9.127,9.127,0,0,0,8.424-7.051l20.307-94.551Z" transform="translate(-409.845 -211.167)" fill="#64a4d3"/>
          <g id="Group_210" data-name="Group 210" transform="translate(25.819 5.558)">
            <path id="Path_8213" data-name="Path 8213" d="M424.349,222.967a2.217,2.217,0,0,1-2.051,1.761,1.389,1.389,0,0,1-1.364-1.761,2.214,2.214,0,0,1,2.05-1.763A1.39,1.39,0,0,1,424.349,222.967Z" transform="translate(-420.9 -221.204)" fill="#fff"/>
            <path id="Path_8214" data-name="Path 8214" d="M427.539,222.967a2.219,2.219,0,0,1-2.053,1.761,1.386,1.386,0,0,1-1.362-1.761,2.214,2.214,0,0,1,2.053-1.763A1.389,1.389,0,0,1,427.539,222.967Z" transform="translate(-416.642 -221.204)" fill="#fff"/>
            <path id="Path_8215" data-name="Path 8215" d="M430.727,222.967a2.219,2.219,0,0,1-2.053,1.761,1.386,1.386,0,0,1-1.362-1.761,2.219,2.219,0,0,1,2.055-1.763A1.386,1.386,0,0,1,430.727,222.967Z" transform="translate(-412.385 -221.204)" fill="#fff"/>
          </g>
        </g>
        <path id="Path_8216" data-name="Path 8216" d="M492.809,247.64H441.471a.6.6,0,0,1-.593-.768.976.976,0,0,1,.9-.766h51.345a.6.6,0,0,1,.589.766A.979.979,0,0,1,492.809,247.64Z" transform="translate(-368.423 -182.39)" fill="#fff"/>
        <g id="Group_212" data-name="Group 212" transform="translate(70.255 72.287)">
          <path id="Path_8217" data-name="Path 8217" d="M440.841,252.065a.885.885,0,0,1-.724-.339.966.966,0,0,1-.166-.81,1.479,1.479,0,0,1,.493-.813,1.136,1.136,0,0,1,1.586,0,1.025,1.025,0,0,1,.166.813,1.485,1.485,0,0,1-.493.81A1.376,1.376,0,0,1,440.841,252.065Z" transform="translate(-439.927 -249.767)" fill="#fff"/>
          <path id="Path_8218" data-name="Path 8218" d="M482.284,250.925a1.467,1.467,0,0,1,1.359-1.149h0a.9.9,0,0,1,.883,1.149h0a1.467,1.467,0,0,1-1.357,1.149h0A.9.9,0,0,1,482.284,250.925Zm-5.7,0a1.467,1.467,0,0,1,1.359-1.149h0a.9.9,0,0,1,.883,1.149h0a1.467,1.467,0,0,1-1.357,1.149h0A.9.9,0,0,1,476.581,250.925Zm-5.7,0a1.467,1.467,0,0,1,1.357-1.149h0a.9.9,0,0,1,.885,1.149h0a1.465,1.465,0,0,1-1.357,1.149h0A.9.9,0,0,1,470.885,250.925Zm-5.7,0a1.466,1.466,0,0,1,1.364-1.149h0a.9.9,0,0,1,.885,1.149h0a1.469,1.469,0,0,1-1.354,1.149h0A.9.9,0,0,1,465.181,250.925Zm-5.7,0a1.464,1.464,0,0,1,1.357-1.149h0a.9.9,0,0,1,.885,1.149h0a1.462,1.462,0,0,1-1.354,1.149h0A.9.9,0,0,1,459.485,250.925Zm-5.7,0a1.465,1.465,0,0,1,1.357-1.149h0a.9.9,0,0,1,.885,1.149h0a1.467,1.467,0,0,1-1.355,1.149h0A.9.9,0,0,1,453.789,250.925Zm-5.7,0a1.46,1.46,0,0,1,1.354-1.149h0a.9.9,0,0,1,.888,1.149h0a1.46,1.46,0,0,1-1.355,1.149h0A.9.9,0,0,1,448.086,250.925Zm-5.7,0a1.46,1.46,0,0,1,1.355-1.149h0a.9.9,0,0,1,.887,1.149h0a1.457,1.457,0,0,1-1.352,1.149h0A.9.9,0,0,1,442.39,250.925Z" transform="translate(-436.67 -249.776)" fill="#fff"/>
          <path id="Path_8219" data-name="Path 8219" d="M462.794,252.065a.887.887,0,0,1-.722-.339,1,1,0,0,1-.161-.81,1.474,1.474,0,0,1,.5-.813,1.136,1.136,0,0,1,1.586,0,1,1,0,0,1,.159.813,1.461,1.461,0,0,1-.5.81A1.356,1.356,0,0,1,462.794,252.065Z" transform="translate(-410.6 -249.767)" fill="#fff"/>
        </g>
        <path id="Path_8220" data-name="Path 8220" d="M468.784,241.837h-.276l.878-4.239c.806-3.886-1.614-7.055-5.39-7.062a8.976,8.976,0,0,0-8.3,7.039l-.871,4.239-.278,0a3.453,3.453,0,0,0-3.195,2.709l-2.244,10.942a2.348,2.348,0,0,0,.311,1.815l-.033.012a2.081,2.081,0,0,0,1.763.883l14.211.026h.035a3.451,3.451,0,0,0,3.195-2.7l2.27-10.942A2.12,2.12,0,0,0,468.784,241.837Zm-7.8,10.206a1.964,1.964,0,0,1-1.121,1.359l-.334,1.611a.813.813,0,0,1-.736.635.5.5,0,0,1-.474-.638l.334-1.611a1.212,1.212,0,0,1-.563-1.364,1.918,1.918,0,0,1,1.777-1.5,1.142,1.142,0,0,1,1.182,1.086l-.035.023A1.568,1.568,0,0,1,460.986,252.043Zm-2.7-14.463a5.585,5.585,0,0,1,5.164-4.379,3.428,3.428,0,0,1,3.356,4.393l-.876,4.239-8.517-.014Z" transform="translate(-357.49 -203.183)" fill="#fff"/>
      </g>
    </g>
    <g id="Group_216" data-name="Group 216" transform="translate(691.826 174.935)">
      <path id="Path_8221" data-name="Path 8221" d="M568.307,189.449H482.372V178.7h85.935ZM484,187.821h82.68v-7.492H484Z" transform="translate(-482.372 -123.197)" fill="#1a1718"/>
      <g id="Group_215" data-name="Group 215" transform="translate(17.069)">
        <path id="Path_8222" data-name="Path 8222" d="M507.8,192.916c-1.357,0-2.87-1.661-4.613-5.054a70.3,70.3,0,0,1-4.725-12.679h0a70.484,70.484,0,0,1-2.51-13.3c-.292-4.227.28-6.481,1.749-6.89s3.125,1.224,5.059,4.993A79.661,79.661,0,0,1,510,185.966c.292,4.227-.28,6.481-1.752,6.89A1.68,1.68,0,0,1,507.8,192.916Zm-7.77-18.17c3.314,11.89,6.969,16.675,7.779,16.54.794-.28,1.418-6.292-1.894-18.179s-6.936-16.677-7.777-16.542c-.794.28-1.418,6.289,1.892,18.181Z" transform="translate(-481.403 -154.935)" fill="#1a1718"/>
        <ellipse id="Ellipse_496" data-name="Ellipse 496" cx="18.835" cy="3.868" rx="18.835" ry="3.868" transform="translate(23.13 35.685) rotate(-60)" fill="#41442d"/>
        <path id="Rectangle_2446" data-name="Rectangle 2446" d="M0,0H51.8a0,0,0,0,1,0,0V13.848A10.369,10.369,0,0,1,41.428,24.217H10.369A10.369,10.369,0,0,1,0,13.848V0A0,0,0,0,1,0,0Z" transform="translate(0 31.734)" fill="#beb8a4"/>
      </g>
    </g>
    <g id="Group_217" data-name="Group 217" transform="translate(462.183 195.42)">
      <path id="Path_8223" data-name="Path 8223" d="M404.486,168.379a.794.794,0,0,1-.439-.128,18.231,18.231,0,0,0-13.181-2.595.815.815,0,1,1-.4-1.581,19.669,19.669,0,0,1,14.459,2.8.813.813,0,0,1-.439,1.5Z" transform="translate(-376.288 -163.706)" fill="#1a1718"/>
      <path id="Path_8224" data-name="Path 8224" d="M420.635,200.114l-.042,0a.813.813,0,0,1-.773-.852c.757-15.276-3.744-24.247-14.6-29.09a20.563,20.563,0,0,0-17.726.509.814.814,0,0,1-.834-1.4,21.833,21.833,0,0,1,19.223-.6c11.558,5.157,16.358,14.611,15.561,30.655A.813.813,0,0,1,420.635,200.114Z" transform="translate(-381.078 -159.656)" fill="#1a1718"/>
      <path id="Path_8225" data-name="Path 8225" d="M404.655,220.659a.814.814,0,0,1-.642-1.313c7.859-10.134,11.745-22.126,10.659-32.9-.88-8.744-8.221-14.977-16.708-14.188-8.819.817-12.324,8.742-12.359,8.823a.814.814,0,0,1-1.5-.64c.154-.364,3.9-8.9,13.7-9.807a17.043,17.043,0,0,1,18.48,15.648c1.126,11.187-2.882,23.6-10.993,34.06A.813.813,0,0,1,404.655,220.659Z" transform="translate(-384.043 -154.55)" fill="#1a1718"/>
      <path id="Path_8226" data-name="Path 8226" d="M395.34,214.072a.815.815,0,0,1-.645-1.313,82.035,82.035,0,0,0,6.913-12.936c2.371-5.453,5-13,4.033-17.955a7.355,7.355,0,0,0-8.06-6.166c-3.015.243-6.114,2.2-6.233,6.037-.273,8.636-4.846,16.953-5.04,17.3a.816.816,0,0,1-1.425-.794c.047-.082,4.578-8.328,4.837-16.561.152-4.813,4.113-7.317,7.73-7.609a9.031,9.031,0,0,1,9.79,7.48c1.976,10.176-9.181,29.5-11.257,32.194A.811.811,0,0,1,395.34,214.072Z" transform="translate(-383.056 -149.895)" fill="#1a1718"/>
      <path id="Path_8227" data-name="Path 8227" d="M387.37,203.7a.814.814,0,0,1-.6-1.364c.068-.075,6.712-7.5,8.534-24.188a.825.825,0,0,1,.9-.722.813.813,0,0,1,.722.9c-1.887,17.271-8.665,24.8-8.954,25.115A.812.812,0,0,1,387.37,203.7Z" transform="translate(-380.687 -145.384)" fill="#1a1718"/>
    </g>
    <g id="Group_221" data-name="Group 221" transform="translate(367.06 304.235)">
      <g id="Group_219" data-name="Group 219">
        <path id="Path_8228" data-name="Path 8228" d="M372.305,268.281a28.991,28.991,0,1,1,28.99-28.99A29.023,29.023,0,0,1,372.305,268.281Zm0-56.352a27.362,27.362,0,1,0,27.362,27.362A27.392,27.392,0,0,0,372.305,211.929Z" transform="translate(-343.313 -210.299)" fill="#1a1718"/>
        <g id="Group_218" data-name="Group 218" transform="translate(14.426 11.089)">
          <path id="Path_8229" data-name="Path 8229" d="M360.971,232.57a8.761,8.761,0,1,1,8.76-8.763A8.772,8.772,0,0,1,360.971,232.57Zm0-15.9a7.132,7.132,0,1,0,7.133,7.132A7.141,7.141,0,0,0,360.971,216.675Z" transform="translate(-345.86 -215.047)" fill="#1a1718"/>
          <path id="Path_8230" data-name="Path 8230" d="M379.708,238.664H349.49v-.813a15.109,15.109,0,0,1,30.218,0Zm-28.565-1.628h26.911a13.48,13.48,0,0,0-26.911,0Z" transform="translate(-349.49 -204.769)" fill="#1a1718"/>
        </g>
      </g>
      <g id="Group_220" data-name="Group 220" transform="translate(43.83 4.596)">
        <circle id="Ellipse_497" data-name="Ellipse 497" cx="12.198" cy="12.198" r="12.198" fill="#366262"/>
        <path id="Path_8231" data-name="Path 8231" d="M368,227.406l-3.7-3.031a.912.912,0,0,1-.128-1.284h0a.912.912,0,0,1,1.285-.128l2.361,1.934a.915.915,0,0,0,1.254-.093l8.889-9.772a.915.915,0,0,1,1.291-.061h0a.912.912,0,0,1,.061,1.289L369.26,227.315A.916.916,0,0,1,368,227.406Z" transform="translate(-359.561 -208.975)" fill="#fff"/>
      </g>
    </g>
    <path id="Path_8232" data-name="Path 8232" d="M360.318,193.962h-15.07l15.07-15.07Z" transform="translate(26.33 51.994)" fill="#dfa7b2"/>
    <path id="Path_8233" data-name="Path 8233" d="M336.059,284.512l-10.528-10.783,21.311.255Z" transform="translate(0 178.644)" fill="#e61026"/>
    <path id="Path_8234" data-name="Path 8234" d="M529.271,175.955l7.2-13.237,6.032,20.441Z" transform="translate(272.084 30.394)" fill="#64a4d3"/>
    <path id="Path_8235" data-name="Path 8235" d="M566.282,295.09l-14.038,13.455.583-27.493Z" transform="translate(302.764 188.424)" fill="#f9830e"/>
    <g id="Group_222" data-name="Group 222" transform="translate(440.218 326.802)">
      <path id="Path_8236" data-name="Path 8236" d="M430.969,253.63c-7.408-7.922-6.733-18.018-6.586-19.8l14.748,7.7-9.853-21.575-54.64,59.671,53.04-3.361,8.928-18.188A24.2,24.2,0,0,1,430.969,253.63Z" transform="translate(-374.638 -219.962)" fill="#eca19c"/>
      <path id="Path_8237" data-name="Path 8237" d="M410.734,233.606l-14.748-7.7c-.147,1.78-.822,11.876,6.586,19.8a24.2,24.2,0,0,0,5.638,4.454l5.222-10.64Z" transform="translate(-346.24 -212.031)" fill="#1a1718"/>
    </g>
    <ellipse id="Ellipse_498" data-name="Ellipse 498" cx="32.631" cy="35.207" rx="32.631" ry="35.207" transform="translate(484.593 291.595)" fill="#eca19c"/>
    <path id="Path_8238" data-name="Path 8238" d="M442.435,233.221c-14.454,6.418-51.606,22.427-77.752,65.92C343.727,334,340.6,360.893,340.156,377H450.039l26.489-120.874c-1.3-3.209-3.865-12.315-8.83-16.834C458.061,230.523,445.714,233.225,442.435,233.221Z" transform="translate(19.531 124.027)" fill="#f9830e"/>
    <path id="Path_8239" data-name="Path 8239" d="M376.935,283.108l-2.905,61.562A21.066,21.066,0,0,0,401.92,365.6a181.3,181.3,0,0,0,84.317-60.474l28.64-18.861a6.206,6.206,0,0,0,2.022-8.176l-5.052-9.176a4.583,4.583,0,0,1,1.9-6.278l9.1-4.732a3.98,3.98,0,0,0-4.244-6.124l-29.49,10.267a5.013,5.013,0,0,0-2.744,2.317l-14.377,26.073a15.188,15.188,0,0,1-8.05,6.92l-38.257,14.1a1.864,1.864,0,0,1-2.508-1.8l.981-33.71Z" transform="translate(64.735 149.191)" fill="#eca19c"/>
    <path id="Path_8240" data-name="Path 8240" d="M369.352,320.234l68.186-4.218V255.9c-1.411-10.8-8.461-19.592-17.658-22.147-11.1-3.083-23.431,3.433-28.453,15.82Q380.388,284.9,369.352,320.234Z" transform="translate(58.521 124.249)" fill="#f9830e"/>
    <path id="Path_8241" data-name="Path 8241" d="M417.039,239.993l10.612,2.122-3.184-20.761Z" transform="translate(122.204 108.7)" fill="#eca19c"/>
    <ellipse id="Ellipse_499" data-name="Ellipse 499" cx="1.899" cy="3.797" rx="1.899" ry="3.797" transform="translate(537.344 326.257)" fill="#1a1718"/>
    <path id="Path_8242" data-name="Path 8242" d="M416.977,237.8c-3.242-2.025-4.944-5.318-4.442-8.59l.806.124c-.453,2.945,1.107,5.925,4.068,7.775Z" transform="translate(116.073 119.187)" fill="#1a1718"/>
    <rect id="Rectangle_2447" data-name="Rectangle 2447" width="49.794" height="1.629" transform="translate(427.104 444.245) rotate(-72.671)" fill="#1a1718"/>
    <path id="Path_8243" data-name="Path 8243" d="M393.158,255.73a14.971,14.971,0,0,0,7.91.439c1.607-.374,2.562-.661,10.108-5.713h0l8.349-4.176,5.713-15.159c1.436.638,11.371,4.869,21.533-.22a24.808,24.808,0,0,0,10.766-10.766c-7.98-11.915-21.531-18.569-35.156-17.14-16.068,1.689-24.973,13.852-26.367,15.82Q394.588,237.274,393.158,255.73Z" transform="translate(90.313 83.927)" fill="#162134"/>
    <ellipse id="Ellipse_500" data-name="Ellipse 500" cx="5.367" cy="6.726" rx="5.367" ry="6.726" transform="translate(496.588 326.459) rotate(-21.032)" fill="#eca19c"/>
    <path id="Path_8244" data-name="Path 8244" d="M405.7,223.073l-.808-.117a1.915,1.915,0,0,0-3.72-.876l-.773-.255a2.753,2.753,0,0,1,3.118-1.864A2.783,2.783,0,0,1,405.7,223.073Z" transform="translate(99.987 106.775)" fill="#1a1718"/>
  </g>
</svg>
