<svg xmlns="http://www.w3.org/2000/svg" xmlns:xlink="http://www.w3.org/1999/xlink" width="429.115" height="575.774" viewBox="0 0 429.115 575.774">
  <defs>
    <clipPath id="clip-path">
      <rect id="Rectangle_2449" data-name="Rectangle 2449" width="429.115" height="575.774" fill="none"/>
    </clipPath>
  </defs>
  <g id="Group_243" data-name="Group 243" transform="translate(-616.319 -130.038)">
    <g id="Group_242" data-name="Group 242" transform="translate(616.319 130.037)">
      <g id="Group_241" data-name="Group 241" clip-path="url(#clip-path)">
        <g id="Group_240" data-name="Group 240" transform="translate(57.34 113.205)">
          <g id="Group_235" data-name="Group 235">
            <g id="Group_228" data-name="Group 228" transform="translate(0 89.304)">
              <g id="Group_226" data-name="Group 226">
                <g id="Group_224" data-name="Group 224" transform="translate(43.908 89.7)">
                  <path id="Path_8245" data-name="Path 8245" d="M658.107,265.484h52.055l-5.156-9.053H663.263Z" transform="translate(-658.107 -242.399)" fill="#d6deec"/>
                  <path id="Path_8246" data-name="Path 8246" d="M668.227,250.639l-7.992,14.032h41.743l-7.992-14.032Z" transform="translate(-655.079 -250.639)" fill="#bdc7d9"/>
                </g>
                <g id="Group_225" data-name="Group 225">
                  <path id="Path_8247" data-name="Path 8247" d="M639.985,253.1a9.268,9.268,0,0,0,9.268,9.268H770.588a9.266,9.266,0,0,0,9.268-9.268v-6.576H639.985Z" transform="translate(-639.985 -166.788)" fill="#d6deec"/>
                  <path id="Path_8248" data-name="Path 8248" d="M770.588,213.618H649.253a9.269,9.269,0,0,0-9.268,9.268v70.473H779.856V222.886A9.268,9.268,0,0,0,770.588,213.618Z" transform="translate(-639.985 -213.618)" fill="#edf1f9"/>
                </g>
              </g>
              <g id="Group_227" data-name="Group 227" transform="translate(36.082 3.884)">
                <path id="Path_8249" data-name="Path 8249" d="M726.29,248.677l-6.583-.063A28,28,0,0,0,714.9,235.5l4.776-4.686a1.6,1.6,0,0,0,.022-2.263l-3.9-3.976a1.6,1.6,0,0,0-2.263-.022l-4.664,4.574a28.052,28.052,0,0,0-13.04-5.558l.063-6.68a1.6,1.6,0,0,0-1.585-1.614l-5.573-.053a1.6,1.6,0,0,0-1.616,1.585l-.063,6.837a28.059,28.059,0,0,0-12.638,5.544l-4.96-5.057a1.6,1.6,0,0,0-2.263-.022l-3.978,3.9a1.6,1.6,0,0,0-.022,2.263l5.207,5.309a27.986,27.986,0,0,0-4.657,12.2l-7.194-.07a1.6,1.6,0,0,0-1.616,1.585l-.053,5.573a1.6,1.6,0,0,0,1.585,1.616l7.511.07a28.018,28.018,0,0,0,4.9,11.4l-5.665,5.558a1.6,1.6,0,0,0-.022,2.263l3.9,3.978a1.6,1.6,0,0,0,2.263.022l5.713-5.6a28.046,28.046,0,0,0,11.167,4.9l-.065,6.891a1.6,1.6,0,0,0,1.585,1.616l5.573.053a1.6,1.6,0,0,0,1.616-1.585l.063-6.639a27.994,27.994,0,0,0,11.834-4.24l4.911,5.008a1.6,1.6,0,0,0,2.263.022l3.978-3.9a1.6,1.6,0,0,0,.022-2.263l-4.6-4.691a28.075,28.075,0,0,0,5.813-11.964l6.988.065a1.6,1.6,0,0,0,1.616-1.585l.053-5.573A1.6,1.6,0,0,0,726.29,248.677Zm-34.8,21.954a19.2,19.2,0,1,1,19.381-19.013A19.217,19.217,0,0,1,691.492,270.631Z" transform="translate(-654.877 -215.221)" fill="#c8304f"/>
                <path id="Path_8250" data-name="Path 8250" d="M688.574,227.8a.671.671,0,0,0-.93-.2l-11.889,7.627-8.844-6.886a.9.9,0,1,0-1.1,1.417l9,7a.9.9,0,0,0,.543.191h0a.863.863,0,0,0,.136-.015.894.894,0,0,0,.536-.286l12.35-7.923A.668.668,0,0,0,688.574,227.8Z" transform="translate(-639.815 -197.77)" fill="#131313"/>
              </g>
            </g>
            <g id="Group_231" data-name="Group 231" transform="translate(210.027 46.867)">
              <g id="Group_229" data-name="Group 229" transform="translate(34.293 70.056)">
                <path id="Path_8251" data-name="Path 8251" d="M740.821,236.611h40.656l-4.027-7.071h-32.6Z" transform="translate(-740.821 -218.581)" fill="#d6deec"/>
                <path id="Path_8252" data-name="Path 8252" d="M748.725,225.017l-6.242,10.959h32.6l-6.242-10.959Z" transform="translate(-738.456 -225.017)" fill="#bdc7d9"/>
              </g>
              <g id="Group_230" data-name="Group 230">
                <path id="Path_8253" data-name="Path 8253" d="M726.668,226.944a7.239,7.239,0,0,0,7.237,7.237h94.766a7.238,7.238,0,0,0,7.237-7.237v-5.137H726.668Z" transform="translate(-726.668 -159.528)" fill="#d6deec"/>
                <path id="Path_8254" data-name="Path 8254" d="M828.671,196.1H733.905a7.238,7.238,0,0,0-7.237,7.237v55.042h109.24V203.34A7.236,7.236,0,0,0,828.671,196.1Z" transform="translate(-726.668 -196.103)" fill="#edf1f9"/>
              </g>
            </g>
            <path id="Path_8255" data-name="Path 8255" d="M794.072,223.485l-5.139-.051a21.887,21.887,0,0,0-3.76-10.242l3.731-3.659a1.253,1.253,0,0,0,.017-1.769l-3.048-3.106a1.253,1.253,0,0,0-1.769-.017l-3.642,3.574a21.893,21.893,0,0,0-10.184-4.342l.049-5.217a1.25,1.25,0,0,0-1.238-1.262l-4.352-.041a1.25,1.25,0,0,0-1.262,1.238l-.051,5.34a21.925,21.925,0,0,0-9.869,4.33l-3.874-3.947a1.246,1.246,0,0,0-1.766-.017l-3.109,3.046a1.251,1.251,0,0,0-.015,1.769l4.066,4.146a21.846,21.846,0,0,0-3.637,9.532l-5.619-.053a1.25,1.25,0,0,0-1.262,1.238l-.041,4.352a1.248,1.248,0,0,0,1.238,1.26l5.866.056a21.883,21.883,0,0,0,3.823,8.9l-4.424,4.342a1.246,1.246,0,0,0-.017,1.766l3.048,3.109a1.25,1.25,0,0,0,1.766.017l4.461-4.378a21.909,21.909,0,0,0,8.725,3.831l-.053,5.384a1.25,1.25,0,0,0,1.238,1.26l4.352.041a1.25,1.25,0,0,0,1.262-1.236l.049-5.185a21.878,21.878,0,0,0,9.243-3.312l3.836,3.911a1.253,1.253,0,0,0,1.769.017l3.106-3.048a1.25,1.25,0,0,0,.017-1.766l-3.593-3.663a21.945,21.945,0,0,0,4.541-9.345l5.456.051a1.25,1.25,0,0,0,1.262-1.238l.041-4.352A1.246,1.246,0,0,0,794.072,223.485ZM766.9,240.632a14.994,14.994,0,1,1,15.136-14.85A15.011,15.011,0,0,1,766.9,240.632Z" transform="translate(-500.091 -147.456)" fill="#e8b039"/>
            <path id="Path_8256" data-name="Path 8256" d="M764.617,207.176a.526.526,0,0,0-.727-.16l-9.287,5.958L747.7,207.6a.7.7,0,1,0-.86,1.1l7.026,5.471a.684.684,0,0,0,.424.148h0a.4.4,0,0,0,.107-.01.677.677,0,0,0,.417-.223l9.648-6.188A.524.524,0,0,0,764.617,207.176Z" transform="translate(-488.328 -133.827)" fill="#131313"/>
            <g id="Group_234" data-name="Group 234" transform="translate(84.948)">
              <g id="Group_232" data-name="Group 232" transform="translate(27.589 56.362)">
                <path id="Path_8257" data-name="Path 8257" d="M686.432,209.349h32.708l-3.24-5.688H689.671Z" transform="translate(-686.432 -194.844)" fill="#d6deec"/>
                <path id="Path_8258" data-name="Path 8258" d="M692.79,200.022l-5.021,8.817H714l-5.021-8.817Z" transform="translate(-684.529 -200.022)" fill="#bdc7d9"/>
              </g>
              <g id="Group_233" data-name="Group 233">
                <path id="Path_8259" data-name="Path 8259" d="M675.045,201.573a5.823,5.823,0,0,0,5.822,5.822h76.24a5.823,5.823,0,0,0,5.822-5.822v-4.134H675.045Z" transform="translate(-675.045 -147.335)" fill="#d6deec"/>
                <path id="Path_8260" data-name="Path 8260" d="M757.107,176.76h-76.24a5.823,5.823,0,0,0-5.822,5.825v44.279h87.884V182.585A5.823,5.823,0,0,0,757.107,176.76Z" transform="translate(-675.045 -176.76)" fill="#edf1f9"/>
              </g>
            </g>
            <path id="Path_8261" data-name="Path 8261" d="M729.272,198.788l-4.136-.039a17.6,17.6,0,0,0-3.021-8.24l3-2.944a1.006,1.006,0,0,0,.012-1.422l-2.45-2.5a1,1,0,0,0-1.422-.015l-2.932,2.876a17.583,17.583,0,0,0-8.194-3.494l.041-4.2a1.006,1.006,0,0,0-1-1.015l-3.5-.034a1.006,1.006,0,0,0-1.015,1l-.041,4.3a17.637,17.637,0,0,0-7.94,3.484l-3.116-3.176a1.006,1.006,0,0,0-1.422-.015l-2.5,2.452a1,1,0,0,0-.015,1.422l3.271,3.336a17.629,17.629,0,0,0-2.927,7.666l-4.519-.041a1,1,0,0,0-1.015,1l-.034,3.5a1,1,0,0,0,1,1.013l4.72.046a17.6,17.6,0,0,0,3.077,7.16l-3.562,3.491a1.006,1.006,0,0,0-.012,1.422l2.452,2.5a1,1,0,0,0,1.42.012l3.591-3.521a17.6,17.6,0,0,0,7.017,3.082l-.041,4.33a1.006,1.006,0,0,0,1,1.015l3.5.034a1.006,1.006,0,0,0,1.015-1l.039-4.172a17.59,17.59,0,0,0,7.436-2.663l3.087,3.145a1.006,1.006,0,0,0,1.422.015l2.5-2.452a1,1,0,0,0,.014-1.422l-2.891-2.946a17.635,17.635,0,0,0,3.651-7.518l4.39.041a1,1,0,0,0,1.015-1l.034-3.5A1.006,1.006,0,0,0,729.272,198.788Zm-21.862,13.8a12.063,12.063,0,1,1,12.175-11.947A12.076,12.076,0,0,1,707.41,212.584Z" transform="translate(-576.783 -175.327)" fill="#90c8ae"/>
            <path id="Path_8262" data-name="Path 8262" d="M705.576,185.667a.425.425,0,0,0-.586-.126l-7.47,4.793-5.556-4.327a.565.565,0,1,0-.693.892l5.653,4.4a.571.571,0,0,0,.342.121h0a.478.478,0,0,0,.085-.01.577.577,0,0,0,.337-.179l7.761-4.977A.426.426,0,0,0,705.576,185.667Z" transform="translate(-567.319 -164.362)" fill="#131313"/>
          </g>
          <g id="Group_239" data-name="Group 239" transform="translate(87.261 105.477)">
            <path id="Path_8263" data-name="Path 8263" d="M750.12,265.74a.693.693,0,0,1-.7-.693V220.988a.694.694,0,1,1,1.388,0v44.059A.693.693,0,0,1,750.12,265.74Z" transform="translate(-571.521 -220.293)" fill="#1a1718"/>
            <g id="Group_236" data-name="Group 236" transform="translate(0 31.459)">
              <path id="Path_8264" data-name="Path 8264" d="M745.166,267.98l.9-14.848a9.806,9.806,0,0,1,2.857-6.338l5.493-4.01.625-5.687c.143-1.308-.032-1.153,1.287-1.153h0a2.575,2.575,0,0,1,2.375,1.575l1.018,2.408a2.913,2.913,0,0,1,.228,1.131v5.648l4.126,6.537,2.513.1.606,1.306L766.49,263l-11.114,7.865Z" transform="translate(-577.581 -229.49)" fill="#cd8d7d"/>
              <path id="Path_8265" data-name="Path 8265" d="M704.368,273.025a118.442,118.442,0,0,1,1.711-13.077,41.48,41.48,0,0,1,2.614-8.851,18.433,18.433,0,0,1,2.619-3.976,1.362,1.362,0,0,0-1.148-2.248,6.4,6.4,0,0,0-4.8,2.8l-2.7,6.14a1.03,1.03,0,0,1-1.912.2L695.818,234.4a1.485,1.485,0,0,0-2.815.8q.956,7.043,1.909,14.084a1.165,1.165,0,0,1-1.306.225,1.189,1.189,0,0,1-.6-.831q-3.071-7.141-6.137-14.283a1.538,1.538,0,0,0-3.017.5q2.312,8,4.625,15.994a1.172,1.172,0,0,1-.679,1.03,1.192,1.192,0,0,1-1.432-.426l-5.333-11.669a1.533,1.533,0,0,0-1.834-.654,1.557,1.557,0,0,0-.681,2.164l5.333,13.68a.952.952,0,0,1-1.611,1.005l-4.526-5.934c-1.022-.63-1.391-.4-1.459-.354-.453.32-.293,1.543.453,3.07l2.917,5.733,12.071,19.514Z" transform="translate(-676 -233.277)" fill="#cd8d7d"/>
            </g>
            <path id="Path_8266" data-name="Path 8266" d="M705.78,332.365l-4.828,123.122h26.763l11.863-64.578,6.639,71.217h27.763l-6.035-139.417Z" transform="translate(-640.495 -74.564)" fill="#516eac"/>
            <rect id="Rectangle_2448" data-name="Rectangle 2448" width="19.668" height="16.295" transform="translate(87.26 143.129)" fill="#cd8d7d"/>
            <path id="Path_8267" data-name="Path 8267" d="M702.669,339.963,733.89,337l32.831,4.506-.528-12.2-63.141.891Z" transform="translate(-638.051 -65.169)" fill="#1a1718"/>
            <g id="Group_237" data-name="Group 237" transform="translate(12.474 66.48)">
              <path id="Path_8268" data-name="Path 8268" d="M851.044,253.163l-14.785-5.432-50.094,95.659L739.994,344l-42.249-94.455-16.6,6.639L717.964,360.29l10.61,69.676a12.139,12.139,0,0,0-4.693,9.6h0a12.163,12.163,0,0,0,12.163,12.163h60.905a12.164,12.164,0,0,0,12.163-12.163h0a12.165,12.165,0,0,0-6.372-10.7l8.17-66.764Z" transform="translate(-681.148 -247.731)" fill="#f0861b"/>
              <path id="Path_8269" data-name="Path 8269" d="M713.363,292.691h22.555c1.606,0,2.908-1.757,2.908-3.923s-1.3-3.923-2.908-3.923H713.363c-1.607,0-2.908,1.757-2.908,3.923S711.756,292.691,713.363,292.691Z" transform="translate(-639.446 -194.919)" fill="#f0861b"/>
            </g>
            <path id="Path_8270" data-name="Path 8270" d="M724.657,275.588" transform="translate(-606.764 -141.612)" fill="none" stroke="#1a1718" stroke-linecap="round" stroke-miterlimit="10" stroke-width="6"/>
            <g id="Group_238" data-name="Group 238" transform="translate(72.814 127.468)">
              <ellipse id="Ellipse_501" data-name="Ellipse 501" cx="2.73" cy="4.948" rx="2.73" ry="4.948" transform="matrix(0.839, -0.544, 0.544, 0.839, 0, 2.97)" fill="#cd8d7d"/>
              <ellipse id="Ellipse_502" data-name="Ellipse 502" cx="4.948" cy="2.73" rx="4.948" ry="2.73" transform="matrix(0.455, -0.891, 0.891, 0.455, 41.886, 10.374)" fill="#cd8d7d"/>
            </g>
            <path id="Path_8271" data-name="Path 8271" d="M747.023,290.621a.7.7,0,0,1-.7-.7V274.645a4.034,4.034,0,0,0-.608-2.144,8.319,8.319,0,0,0-4.972-3.639,3.963,3.963,0,0,0-.977-.119H714.207a3.936,3.936,0,0,0-2.231.654,3.672,3.672,0,0,0-.739.659,3.718,3.718,0,0,0-.453.649,3.886,3.886,0,0,0-.436,2.222L711,280.4a.694.694,0,1,1-1.383.121l-.654-7.477a5.113,5.113,0,0,1,1.224-3.9,5.114,5.114,0,0,1,1.01-.9,5.33,5.33,0,0,1,3.012-.892h25.564a5.351,5.351,0,0,1,1.323.162,9.691,9.691,0,0,1,5.8,4.247,5.421,5.421,0,0,1,.821,2.881v15.281A.7.7,0,0,1,747.023,290.621Z" transform="translate(-629.13 -153.329)" fill="#6a2413"/>
            <path id="Path_8272" data-name="Path 8272" d="M724.87,285.847h-.041a.694.694,0,0,1-.652-.734l.5-8.568a.7.7,0,0,1,1.388.082l-.5,8.565A.694.694,0,0,1,724.87,285.847Z" transform="translate(-607.449 -141.179)" fill="#6a2413"/>
            <path id="Path_8273" data-name="Path 8273" d="M736.968,273.465l2.357-2.222a1.943,1.943,0,0,0,.1-3.135,2.635,2.635,0,0,0-3.082-.15l-.174.145,1.292-1.216a1.947,1.947,0,0,0,.1-3.138h0a2.639,2.639,0,0,0-3.082-.148l-9.462,7.773c-9.282,1.575-16.384,10.259-16.384,20.738,0,11.594,8.691,20.992,19.412,20.992s19.415-9.4,19.415-20.992A21.249,21.249,0,0,0,736.968,273.465Z" transform="translate(-629.567 -159.275)" fill="#7f5a50"/>
            <path id="Path_8274" data-name="Path 8274" d="M737.4,337.8H719.519a.231.231,0,0,1,0-.463H737.4a.231.231,0,0,1,0,.463Z" transform="translate(-614.402 -53.742)" fill="#1a1718"/>
            <path id="Path_8275" data-name="Path 8275" d="M721.908,337.8H704.48a.231.231,0,0,1,0-.463h17.428a.231.231,0,0,1,0,.463Z" transform="translate(-635.802 -53.742)" fill="#1a1718"/>
            <path id="Path_8276" data-name="Path 8276" d="M709.912,284.67a.693.693,0,0,1-.7-.693V277.74a.694.694,0,1,1,1.388,0v6.237A.693.693,0,0,1,709.912,284.67Z" transform="translate(-628.734 -139.539)" fill="#6a2413"/>
          </g>
        </g>
      </g>
    </g>
    <path id="Path_8277" data-name="Path 8277" d="M655.586,194.786l-13.036,9.777,3.259-22.814Z" transform="translate(37.323 73.582)" fill="#e28517"/>
    <path id="Path_8278" data-name="Path 8278" d="M775.628,264.584l-11.389-4.293,15.682-7.1Z" transform="translate(210.479 175.245)" fill="#90c8ae"/>
    <path id="Path_8279" data-name="Path 8279" d="M747.036,182.289h-9.657v-9.657Z" transform="translate(172.259 60.61)" fill="#c8304f"/>
  </g>
</svg>
